<?xml version="1.0" encoding="UTF-8"?>
<svg id="Layer_1" xmlns="http://www.w3.org/2000/svg" version="1.1" viewBox="0 0 1920 931.68">
  <!-- Generator: Adobe Illustrator 29.1.0, SVG Export Plug-In . SVG Version: 2.1.0 Build 142)  -->
  <defs>
    <style>
      .st0 {
        fill: #f26c4f;
      }
    </style>
  </defs>
  <polygon class="st0" points="613.34 385.01 613.34 259.63 517.37 259.63 517.37 385.01 583.15 385.01 613.34 385.01"/>
  <polygon class="st0" points="774.53 422.66 652.11 422.66 614.57 460.48 517.37 558.37 517.37 685.97 613.34 685.97 613.34 505.1 774.53 505.1 774.53 685.97 870.51 685.97 870.51 259.63 774.53 259.63 774.53 422.66"/>
  <rect class="st0" x="936.47" y="259.63" width="95.98" height="426.35"/>
  <path class="st0" d="M1381.54,511.25c-14.77-22.15-30.56-45.22-47.37-69.21-16.82-23.99-33.74-47.16-50.76-69.52-17.03-22.35-33.74-43.37-50.14-63.06-16.41-19.69-31.37-36.3-44.91-49.83h-78.14v426.35h94.75v-279.31c36.09,42.25,70.13,87.16,102.13,134.73,31.99,47.59,61.73,95.77,89.21,144.58h80.59v-426.35h-95.36v251.63Z"/>
  <polygon class="st0" points="1638.84 605.38 1638.84 502.64 1809.25 502.64 1809.25 423.89 1638.84 423.89 1638.84 340.22 1830.79 340.22 1830.79 259.63 1542.86 259.63 1542.86 685.97 1844.93 685.97 1844.93 605.38 1638.84 605.38"/>
  <polygon class="st0" points="505.32 429.28 505.32 429.35 308.61 429.35 308.61 429.28 252.8 429.28 362.66 314.23 342.97 403.58 417.88 403.58 502.33 65.46 75.22 502 243.53 502 243.46 502.27 320.89 502.27 320.95 502 404.46 502 295.6 612.55 314.98 528.04 236.83 528.04 149.92 865.6 583.15 429.28 505.32 429.28"/>
</svg>